<?xml version="1.0" encoding="UTF-8" standalone="no"?>
<!DOCTYPE svg PUBLIC "-//W3C//DTD SVG 1.1//EN"
 "http://www.w3.org/Graphics/SVG/1.1/DTD/svg11.dtd">
<!-- Generated by graphviz version 2.38.0 (20140413.2041)
 -->
<!-- Title: %3 Pages: 1 -->
<svg width="963pt" height="476pt"
 viewBox="0.00 0.00 962.72 476.00" xmlns="http://www.w3.org/2000/svg" xmlns:xlink="http://www.w3.org/1999/xlink">
<g id="graph0" class="graph" transform="scale(1 1) rotate(0) translate(4 472)">
<title>%3</title>
<polygon fill="white" stroke="none" points="-4,4 -4,-472 958.72,-472 958.72,4 -4,4"/>
<!-- [root] azurerm_public_ip.myip -->
<g id="node1" class="node"><title>[root] azurerm_public_ip.myip</title>
<polygon fill="none" stroke="black" points="599.592,-324 410.592,-324 410.592,-288 599.592,-288 599.592,-324"/>
<text text-anchor="middle" x="505.092" y="-302.3" font-family="Times,serif" font-size="14.00">azurerm_public_ip.myip</text>
</g>
<!-- [root] azurerm_resource_group.thegroup -->
<g id="node2" class="node"><title>[root] azurerm_resource_group.thegroup</title>
<polygon fill="none" stroke="black" points="442.092,-180 176.092,-180 176.092,-144 442.092,-144 442.092,-180"/>
<text text-anchor="middle" x="309.092" y="-158.3" font-family="Times,serif" font-size="14.00">azurerm_resource_group.thegroup</text>
</g>
<!-- [root] azurerm_public_ip.myip&#45;&gt;[root] azurerm_resource_group.thegroup -->
<g id="edge1" class="edge"><title>[root] azurerm_public_ip.myip&#45;&gt;[root] azurerm_resource_group.thegroup</title>
<path fill="none" stroke="black" d="M496.108,-287.704C485.069,-267.95 464.624,-235.812 439.092,-216 421.555,-202.391 400.042,-191.758 379.602,-183.704"/>
<polygon fill="black" stroke="black" points="380.583,-180.334 369.991,-180.071 378.107,-186.881 380.583,-180.334"/>
</g>
<!-- [root] provider.azurerm -->
<g id="node5" class="node"><title>[root] provider.azurerm</title>
<polygon fill="none" stroke="black" points="309.092,-108 180.228,-90 309.092,-72 437.957,-90 309.092,-108"/>
<text text-anchor="middle" x="309.092" y="-86.3" font-family="Times,serif" font-size="14.00">provider.azurerm</text>
</g>
<!-- [root] azurerm_resource_group.thegroup&#45;&gt;[root] provider.azurerm -->
<g id="edge2" class="edge"><title>[root] azurerm_resource_group.thegroup&#45;&gt;[root] provider.azurerm</title>
<path fill="none" stroke="black" d="M309.092,-143.697C309.092,-135.983 309.092,-126.712 309.092,-118.112"/>
<polygon fill="black" stroke="black" points="312.592,-118.104 309.092,-108.104 305.592,-118.104 312.592,-118.104"/>
</g>
<!-- [root] var.location -->
<g id="node6" class="node"><title>[root] var.location</title>
<ellipse fill="none" stroke="black" cx="549.092" cy="-90" rx="93.6835" ry="18"/>
<text text-anchor="middle" x="549.092" y="-86.3" font-family="Times,serif" font-size="14.00">[root] var.location</text>
</g>
<!-- [root] azurerm_resource_group.thegroup&#45;&gt;[root] var.location -->
<g id="edge3" class="edge"><title>[root] azurerm_resource_group.thegroup&#45;&gt;[root] var.location</title>
<path fill="none" stroke="black" d="M367.496,-143.966C404.688,-133.118 452.71,-119.111 490.029,-108.227"/>
<polygon fill="black" stroke="black" points="491.142,-111.548 499.762,-105.388 489.182,-104.828 491.142,-111.548"/>
</g>
<!-- [root] var.rg -->
<g id="node7" class="node"><title>[root] var.rg</title>
<ellipse fill="none" stroke="black" cx="95.0923" cy="-90" rx="66.8882" ry="18"/>
<text text-anchor="middle" x="95.0923" y="-86.3" font-family="Times,serif" font-size="14.00">[root] var.rg</text>
</g>
<!-- [root] azurerm_resource_group.thegroup&#45;&gt;[root] var.rg -->
<g id="edge4" class="edge"><title>[root] azurerm_resource_group.thegroup&#45;&gt;[root] var.rg</title>
<path fill="none" stroke="black" d="M257.016,-143.966C223.122,-132.879 179.14,-118.492 145.57,-107.511"/>
<polygon fill="black" stroke="black" points="146.545,-104.148 135.953,-104.366 144.369,-110.801 146.545,-104.148"/>
</g>
<!-- [root] azurerm_subnet.mysub -->
<g id="node3" class="node"><title>[root] azurerm_subnet.mysub</title>
<polygon fill="none" stroke="black" points="392.592,-324 207.592,-324 207.592,-288 392.592,-288 392.592,-324"/>
<text text-anchor="middle" x="300.092" y="-302.3" font-family="Times,serif" font-size="14.00">azurerm_subnet.mysub</text>
</g>
<!-- [root] azurerm_virtual_network.mynet -->
<g id="node4" class="node"><title>[root] azurerm_virtual_network.mynet</title>
<polygon fill="none" stroke="black" points="430.092,-252 182.092,-252 182.092,-216 430.092,-216 430.092,-252"/>
<text text-anchor="middle" x="306.092" y="-230.3" font-family="Times,serif" font-size="14.00">azurerm_virtual_network.mynet</text>
</g>
<!-- [root] azurerm_subnet.mysub&#45;&gt;[root] azurerm_virtual_network.mynet -->
<g id="edge5" class="edge"><title>[root] azurerm_subnet.mysub&#45;&gt;[root] azurerm_virtual_network.mynet</title>
<path fill="none" stroke="black" d="M301.575,-287.697C302.237,-279.983 303.031,-270.712 303.768,-262.112"/>
<polygon fill="black" stroke="black" points="307.259,-262.367 304.626,-252.104 300.285,-261.769 307.259,-262.367"/>
</g>
<!-- [root] azurerm_virtual_network.mynet&#45;&gt;[root] azurerm_resource_group.thegroup -->
<g id="edge6" class="edge"><title>[root] azurerm_virtual_network.mynet&#45;&gt;[root] azurerm_resource_group.thegroup</title>
<path fill="none" stroke="black" d="M306.834,-215.697C307.164,-207.983 307.562,-198.712 307.93,-190.112"/>
<polygon fill="black" stroke="black" points="311.428,-190.245 308.359,-180.104 304.434,-189.945 311.428,-190.245"/>
</g>
<!-- [root] var.appid -->
<g id="node11" class="node"><title>[root] var.appid</title>
<ellipse fill="none" stroke="black" cx="687.092" cy="-18" rx="82.5854" ry="18"/>
<text text-anchor="middle" x="687.092" y="-14.3" font-family="Times,serif" font-size="14.00">[root] var.appid</text>
</g>
<!-- [root] provider.azurerm&#45;&gt;[root] var.appid -->
<g id="edge14" class="edge"><title>[root] provider.azurerm&#45;&gt;[root] var.appid</title>
<path fill="none" stroke="black" d="M361.652,-79.2668C427.913,-66.9962 542.083,-45.8536 616.065,-32.1531"/>
<polygon fill="black" stroke="black" points="617.033,-35.5335 626.229,-30.271 615.759,-28.6505 617.033,-35.5335"/>
</g>
<!-- [root] var.password -->
<g id="node13" class="node"><title>[root] var.password</title>
<ellipse fill="none" stroke="black" cx="293.092" cy="-18" rx="100.983" ry="18"/>
<text text-anchor="middle" x="293.092" y="-14.3" font-family="Times,serif" font-size="14.00">[root] var.password</text>
</g>
<!-- [root] provider.azurerm&#45;&gt;[root] var.password -->
<g id="edge15" class="edge"><title>[root] provider.azurerm&#45;&gt;[root] var.password</title>
<path fill="none" stroke="black" d="M305.3,-72.411C303.52,-64.6232 301.352,-55.1354 299.339,-46.329"/>
<polygon fill="black" stroke="black" points="302.72,-45.4155 297.08,-36.4468 295.896,-46.9753 302.72,-45.4155"/>
</g>
<!-- [root] var.sub_id -->
<g id="node14" class="node"><title>[root] var.sub_id</title>
<ellipse fill="none" stroke="black" cx="499.092" cy="-18" rx="87.1846" ry="18"/>
<text text-anchor="middle" x="499.092" y="-14.3" font-family="Times,serif" font-size="14.00">[root] var.sub_id</text>
</g>
<!-- [root] provider.azurerm&#45;&gt;[root] var.sub_id -->
<g id="edge16" class="edge"><title>[root] provider.azurerm&#45;&gt;[root] var.sub_id</title>
<path fill="none" stroke="black" d="M342.623,-76.6465C372.003,-65.8225 415.128,-49.9343 448.667,-37.5776"/>
<polygon fill="black" stroke="black" points="450.124,-40.7712 458.297,-34.0299 447.704,-34.2028 450.124,-40.7712"/>
</g>
<!-- [root] var.tenant -->
<g id="node15" class="node"><title>[root] var.tenant</title>
<ellipse fill="none" stroke="black" cx="87.0923" cy="-18" rx="87.1846" ry="18"/>
<text text-anchor="middle" x="87.0923" y="-14.3" font-family="Times,serif" font-size="14.00">[root] var.tenant</text>
</g>
<!-- [root] provider.azurerm&#45;&gt;[root] var.tenant -->
<g id="edge17" class="edge"><title>[root] provider.azurerm&#45;&gt;[root] var.tenant</title>
<path fill="none" stroke="black" d="M271.684,-77.2046C236.295,-66.0459 182.742,-49.1599 142.417,-36.4449"/>
<polygon fill="black" stroke="black" points="143.32,-33.0596 132.73,-33.3904 141.215,-39.7356 143.32,-33.0596"/>
</g>
<!-- [root] meta.count&#45;boundary (count boundary fixup) -->
<g id="node8" class="node"><title>[root] meta.count&#45;boundary (count boundary fixup)</title>
<ellipse fill="none" stroke="black" cx="707.092" cy="-378" rx="247.756" ry="18"/>
<text text-anchor="middle" x="707.092" y="-374.3" font-family="Times,serif" font-size="14.00">[root] meta.count&#45;boundary (count boundary fixup)</text>
</g>
<!-- [root] meta.count&#45;boundary (count boundary fixup)&#45;&gt;[root] azurerm_public_ip.myip -->
<g id="edge7" class="edge"><title>[root] meta.count&#45;boundary (count boundary fixup)&#45;&gt;[root] azurerm_public_ip.myip</title>
<path fill="none" stroke="black" d="M658.965,-360.322C630.429,-350.434 594.051,-337.827 563.832,-327.355"/>
<polygon fill="black" stroke="black" points="564.849,-324.004 554.254,-324.036 562.557,-330.618 564.849,-324.004"/>
</g>
<!-- [root] meta.count&#45;boundary (count boundary fixup)&#45;&gt;[root] azurerm_subnet.mysub -->
<g id="edge8" class="edge"><title>[root] meta.count&#45;boundary (count boundary fixup)&#45;&gt;[root] azurerm_subnet.mysub</title>
<path fill="none" stroke="black" d="M615.5,-361.247C552.289,-350.375 468.172,-335.908 402.703,-324.648"/>
<polygon fill="black" stroke="black" points="403.222,-321.186 392.774,-322.94 402.036,-328.085 403.222,-321.186"/>
</g>
<!-- [root] output.more -->
<g id="node9" class="node"><title>[root] output.more</title>
<ellipse fill="none" stroke="black" cx="687.092" cy="-234" rx="96.6831" ry="18"/>
<text text-anchor="middle" x="687.092" y="-230.3" font-family="Times,serif" font-size="14.00">[root] output.more</text>
</g>
<!-- [root] meta.count&#45;boundary (count boundary fixup)&#45;&gt;[root] output.more -->
<g id="edge9" class="edge"><title>[root] meta.count&#45;boundary (count boundary fixup)&#45;&gt;[root] output.more</title>
<path fill="none" stroke="black" d="M704.68,-359.871C701.271,-335.67 695.009,-291.211 690.95,-262.393"/>
<polygon fill="black" stroke="black" points="694.374,-261.603 689.513,-252.189 687.442,-262.58 694.374,-261.603"/>
</g>
<!-- [root] var.yo -->
<g id="node10" class="node"><title>[root] var.yo</title>
<ellipse fill="none" stroke="black" cx="783.092" cy="-306" rx="67.6881" ry="18"/>
<text text-anchor="middle" x="783.092" y="-302.3" font-family="Times,serif" font-size="14.00">[root] var.yo</text>
</g>
<!-- [root] meta.count&#45;boundary (count boundary fixup)&#45;&gt;[root] var.yo -->
<g id="edge10" class="edge"><title>[root] meta.count&#45;boundary (count boundary fixup)&#45;&gt;[root] var.yo</title>
<path fill="none" stroke="black" d="M725.879,-359.697C735.476,-350.857 747.293,-339.973 757.691,-330.396"/>
<polygon fill="black" stroke="black" points="760.321,-332.732 765.305,-323.383 755.578,-327.583 760.321,-332.732"/>
</g>
<!-- [root] output.more&#45;&gt;[root] var.appid -->
<g id="edge11" class="edge"><title>[root] output.more&#45;&gt;[root] var.appid</title>
<path fill="none" stroke="black" d="M687.092,-215.849C687.092,-178.832 687.092,-91.1809 687.092,-46.3863"/>
<polygon fill="black" stroke="black" points="690.592,-46.2324 687.092,-36.2325 683.592,-46.2325 690.592,-46.2324"/>
</g>
<!-- [root] provider.azurerm (close) -->
<g id="node12" class="node"><title>[root] provider.azurerm (close)</title>
<ellipse fill="none" stroke="black" cx="288.092" cy="-378" rx="153.273" ry="18"/>
<text text-anchor="middle" x="288.092" y="-374.3" font-family="Times,serif" font-size="14.00">[root] provider.azurerm (close)</text>
</g>
<!-- [root] provider.azurerm (close)&#45;&gt;[root] azurerm_public_ip.myip -->
<g id="edge12" class="edge"><title>[root] provider.azurerm (close)&#45;&gt;[root] azurerm_public_ip.myip</title>
<path fill="none" stroke="black" d="M337.876,-360.941C368.967,-350.911 409.263,-337.913 442.508,-327.189"/>
<polygon fill="black" stroke="black" points="443.688,-330.485 452.131,-324.084 441.539,-323.824 443.688,-330.485"/>
</g>
<!-- [root] provider.azurerm (close)&#45;&gt;[root] azurerm_subnet.mysub -->
<g id="edge13" class="edge"><title>[root] provider.azurerm (close)&#45;&gt;[root] azurerm_subnet.mysub</title>
<path fill="none" stroke="black" d="M291.059,-359.697C292.381,-351.983 293.97,-342.712 295.444,-334.112"/>
<polygon fill="black" stroke="black" points="298.92,-334.552 297.16,-324.104 292.021,-333.369 298.92,-334.552"/>
</g>
<!-- [root] root -->
<g id="node16" class="node"><title>[root] root</title>
<ellipse fill="none" stroke="black" cx="497.092" cy="-450" rx="58.4896" ry="18"/>
<text text-anchor="middle" x="497.092" y="-446.3" font-family="Times,serif" font-size="14.00">[root] root</text>
</g>
<!-- [root] root&#45;&gt;[root] meta.count&#45;boundary (count boundary fixup) -->
<g id="edge18" class="edge"><title>[root] root&#45;&gt;[root] meta.count&#45;boundary (count boundary fixup)</title>
<path fill="none" stroke="black" d="M535.61,-436.161C566.781,-425.771 611.231,-410.954 647.065,-399.009"/>
<polygon fill="black" stroke="black" points="648.545,-402.205 656.925,-395.722 646.332,-395.564 648.545,-402.205"/>
</g>
<!-- [root] root&#45;&gt;[root] provider.azurerm (close) -->
<g id="edge19" class="edge"><title>[root] root&#45;&gt;[root] provider.azurerm (close)</title>
<path fill="none" stroke="black" d="M458.758,-436.161C427.305,-425.626 382.266,-410.541 346.353,-398.513"/>
<polygon fill="black" stroke="black" points="347.078,-395.065 336.484,-395.208 344.855,-401.703 347.078,-395.065"/>
</g>
</g>
</svg>
